<svg width="24" height="24" viewBox="0 0 24 24" fill="none" xmlns="http://www.w3.org/2000/svg">
<rect width="24" height="24" fill="#E5E5E5"/>
<rect x="0.15" y="0.15" width="23.7" height="23.7" rx="0.85" fill="black" stroke="black" stroke-width="0.3"/>
<path fill-rule="evenodd" clip-rule="evenodd" d="M7 5C7 6.65685 5.65685 8 4 8C2.34315 8 1 6.65685 1 5C1 3.34315 2.34315 2 4 2C5.65685 2 7 3.34315 7 5ZM23 5C23 6.65685 21.6569 8 20 8C18.3431 8 17 6.65685 17 5C17 3.34315 18.3431 2 20 2C21.6569 2 23 3.34315 23 5ZM12 15C13.6569 15 15 13.6569 15 12C15 10.3431 13.6569 9 12 9C10.3431 9 9 10.3431 9 12C9 13.6569 10.3431 15 12 15ZM7 19C7 20.6569 5.65685 22 4 22C2.34315 22 1 20.6569 1 19C1 17.3431 2.34315 16 4 16C5.65685 16 7 17.3431 7 19ZM20 22C21.6569 22 23 20.6569 23 19C23 17.3431 21.6569 16 20 16C18.3431 16 17 17.3431 17 19C17 20.6569 18.3431 22 20 22Z" fill="#FFFCFC"/>
</svg>
